HIERARCHY
ROOT Hips
{
	OFFSET 0.00000 0.00000 0.00000
	CHANNELS 6 Xposition Yposition Zposition Zrotation Yrotation Xrotation 
	JOINT LHipJoint
	{
		OFFSET 0 0 0
		CHANNELS 3 Zrotation Yrotation Xrotation
		JOINT LeftHip
		{
			OFFSET 1.58895 -1.83665 0.71753
			CHANNELS 3 Zrotation Yrotation Xrotation
			JOINT LeftKnee
			{
				OFFSET 2.50528 -6.88321 0.00000
				CHANNELS 3 Zrotation Yrotation Xrotation
				JOINT LeftAnkle
				{
					OFFSET 2.63244 -7.23257 0.00000
					CHANNELS 3 Zrotation Yrotation Xrotation
					JOINT LeftToe
					{
						OFFSET 0.23691 -0.65090 1.72750
						CHANNELS 3 Zrotation Yrotation Xrotation
						End Site
						{
							OFFSET 0.00000 -0.00000 0.92561
						}
					}
				}
			}
		}
	}
	JOINT RHipJoint
	{
		OFFSET 0 0 0
		CHANNELS 3 Zrotation Yrotation Xrotation
		JOINT RightHip
		{
			OFFSET -1.51435 -1.83665 0.71753
			CHANNELS 3 Zrotation Yrotation Xrotation
			JOINT RightKnee
			{
				OFFSET -2.54551 -6.99375 0.00000
				CHANNELS 3 Zrotation Yrotation Xrotation
				JOINT RightAnkle
				{
					OFFSET -2.66027 -7.30903 0.00000
					CHANNELS 3 Zrotation Yrotation Xrotation
					JOINT RightToe
					{
						OFFSET -0.22981 -0.63138 2.03959
						CHANNELS 3 Zrotation Yrotation Xrotation
						End Site
						{
							OFFSET -0.00000 -0.00000 1.07060
						}
					}
				}
			}
		}
	}
	JOINT lowerback
	{
		OFFSET 0 0 0
		CHANNELS 3 Zrotation Yrotation Xrotation
		JOINT Chest
		{
			OFFSET -0.02651 1.86275 -0.11152
			CHANNELS 3 Zrotation Yrotation Xrotation
			JOINT Chest2
			{
				OFFSET 0.01019 1.86224 0.04087
				CHANNELS 3 Zrotation Yrotation Xrotation
				JOINT lowerneck
				{
					OFFSET 0 0 0
					CHANNELS 3 Zrotation Yrotation Xrotation
					JOINT Neck
					{
						OFFSET -0.01926 1.80512 0.08867
						CHANNELS 3 Zrotation Yrotation Xrotation
						JOINT Head
						{
							OFFSET 0.05516 1.76451 -0.38475
							CHANNELS 3 Zrotation Yrotation Xrotation
							End Site
							{
								OFFSET 0.01592 1.82587 -0.14001
							}
						}
					}
				}
				JOINT LeftCollar
				{
					OFFSET 0 0 0
					CHANNELS 3 Zrotation Yrotation Xrotation
					JOINT LeftShoulder
					{
						OFFSET 3.47116 1.51376 0.14491
CHANNELS 3 Zrotation Xrotation Yrotation
						JOINT LeftElbow
						{
OFFSET 0 -4.780950 0.000000
CHANNELS 3 Zrotation Xrotation Yrotation
							JOINT LeftWrist
							{
OFFSET 0 -3.586150 -0.000000
CHANNELS 3 Zrotation Xrotation Yrotation
								JOINT lhand
								{
									OFFSET 0 0 0
CHANNELS 3 Zrotation Xrotation Yrotation
									JOINT LFingers
									{
OFFSET 0 -0.659810 0.000000
CHANNELS 3 Zrotation Xrotation Yrotation
										End Site
										{
OFFSET 0 -0.531960 0.000000
										}
									}
								}
								JOINT LThumb
								{
OFFSET 0 0.000000 0.000000
CHANNELS 3 Zrotation Xrotation Yrotation
									End Site
									{
OFFSET 0 -0.540080 0.540080
									}
								}
							}
						}
					}
				}
				JOINT RightCollar
				{
					OFFSET 0 0 0
					CHANNELS 3 Zrotation Yrotation Xrotation
					JOINT RightShoulder
					{
						OFFSET -3.31725 1.61216 0.35156
CHANNELS 3 Zrotation Xrotation Yrotation
						JOINT RightElbow
						{
OFFSET 0 -4.489130 0.000000
CHANNELS 3 Zrotation Xrotation Yrotation
							JOINT RightWrist
							{
OFFSET 0 -3.705100 0.000000
CHANNELS 3 Zrotation Xrotation Yrotation
								JOINT rhand
								{
									OFFSET 0 0 0
CHANNELS 3 Zrotation Xrotation Yrotation
									JOINT RFingers
									{
OFFSET 0 -0.449140 0.000000
CHANNELS 3 Zrotation Xrotation Yrotation
										End Site
										{
OFFSET 0 -0.362110 0.000000
										}
									}
								}
								JOINT RThumb
								{
OFFSET 0 0.000000 0.000000
CHANNELS 3 Zrotation Xrotation Yrotation
									End Site
									{
OFFSET 0 -0.367630 0.367630
									}
								}
							}
						}
					}
				}
			}
		}
	}
}
MOTION
Frames: 9
Frame Time: 0.008333333333333333
-0.549800 18.559700 5.890300 -3.505100 -4.862700 -1.128200 0.000000 0.000000 0.000000 -11.708900 -3.929400 2.265100 1.293400 7.205700 20.326300 1.901900 8.571900 -30.310900 8.298500 -16.334500 -53.630800 0.000000 0.000000 0.000000 0.000000 0.000000 0.000000 0.000000 0.000000 0.000000 -0.000000 -0.000000 0.000000 -0.000000 -0.000000 0.000000 1.994800 1.579200 0.685400 0.458100 2.147500 -1.539800 -0.696300 1.046100 -1.906700 -0.800500 -2.134900 -10.048200 2.854100 -3.805100 30.179300 0.707500 -1.474900 11.545300 0.000000 0.000000 0.000000 -2.680700 11.941700 -25.956500 18.934700 -29.337500 4.998800 20.636400 -3.430600 33.736200 0.000000 0.000000 0.000000 -7.125000 0.000000 0.000000 -6.515400 -5.328000 -7.136700 0.000000 0.000000 0.000000 1.217700 18.573700 23.991300 -24.819900 -36.019400 -8.183800 -19.282100 30.762500 31.930800 0.000000 0.000000 0.000000 7.125000 0.000000 -0.000000 15.458700 62.762400 -6.754000
-0.551298 18.568465 5.892209 -2.678879 -4.741541 -0.758054 0.000000 0.000000 0.000000 -12.695641 -4.292099 2.328279 1.205182 6.963971 19.608928 1.854714 8.979559 -30.277946 8.265298 -16.310979 -53.512815 0.000000 0.000000 0.000000 0.000000 0.000000 0.000000 0.000000 0.000000 0.000000 0.000000 0.000000 0.000000 0.000000 0.000000 0.000000 1.090673 1.552532 0.265122 0.266348 2.089379 -1.723509 -0.376926 1.028963 -1.885029 -0.949600 -2.204981 -9.680121 2.916238 -3.901914 30.409192 0.749055 -1.529910 11.567547 0.000000 0.000000 0.000000 -2.545937 12.381408 -26.363828 19.460574 -29.986350 5.259378 20.698647 -4.011870 33.375212 0.000000 0.000000 0.000000 -7.125000 0.000000 0.000000 -6.427156 -4.976775 -7.003062 0.000000 0.000000 0.000000 1.052899 18.793980 23.988893 -24.851987 -36.052379 -8.202681 -18.795734 30.006863 31.325035 0.000000 0.000000 0.000000 7.125000 0.000000 0.000000 15.533976 62.053624 -6.527442
-0.550696 18.577896 5.891748 -1.286800 -4.530435 -0.307551 0.000000 0.000000 0.000000 -14.323581 -4.768442 2.260392 1.120896 6.724909 18.903095 1.810001 9.358407 -30.247324 8.225335 -16.282546 -53.370329 0.000000 0.000000 0.000000 0.000000 0.000000 0.000000 0.000000 0.000000 0.000000 0.000000 0.000000 0.000000 0.000000 0.000000 0.000000 -0.395686 1.487589 -0.263933 -0.085747 1.980648 -1.914795 0.106975 0.995151 -1.823286 -1.126512 -2.228214 -9.409127 3.061918 -3.949523 30.608918 0.831684 -1.554922 11.599433 0.000000 0.000000 0.000000 -2.387620 12.773206 -26.758245 19.976881 -30.613937 5.519791 20.605789 -4.367026 33.007897 0.000000 0.000000 0.000000 -7.125000 0.000000 0.000000 -6.424693 -4.586226 -6.960316 0.000000 0.000000 0.000000 0.935774 18.912863 23.910912 -24.835898 -36.035809 -8.193166 -18.087978 29.316431 30.680482 0.000000 0.000000 0.000000 7.125000 0.000000 0.000000 15.835266 61.255182 -6.357839
-0.550831 18.582108 5.898664 -1.009031 -4.408916 -0.106222 0.000000 0.000000 0.000000 -14.683917 -5.076266 2.420417 1.068551 6.571380 18.451747 1.818405 9.466363 -30.373786 8.174433 -16.246080 -53.188551 0.000000 0.000000 0.000000 0.000000 0.000000 0.000000 0.000000 0.000000 0.000000 0.000000 0.000000 0.000000 0.000000 0.000000 0.000000 -0.682388 1.454137 -0.465384 -0.152673 1.932662 -2.010220 0.203524 0.975180 -1.815454 -1.296092 -2.248486 -9.097420 3.211097 -3.990806 30.678089 0.915338 -1.578092 11.571492 0.000000 0.000000 0.000000 -2.152207 13.207227 -27.370706 20.670705 -31.440476 5.877905 20.012390 -4.342394 32.102883 0.000000 0.000000 0.000000 -7.125000 0.000000 0.000000 -6.630775 -3.550264 -7.073938 0.000000 0.000000 0.000000 0.697390 18.983568 24.091762 -24.741829 -35.938917 -8.137931 -17.136021 28.179341 29.765130 0.000000 0.000000 0.000000 7.125000 0.000000 0.000000 16.217683 60.143419 -6.086645
-0.549831 18.585333 5.904780 -1.177164 -4.276474 0.008586 0.000000 0.000000 0.000000 -14.512473 -5.233687 2.522236 1.042240 6.492629 18.220776 1.814301 9.505130 -30.373881 8.148705 -16.227508 -53.096510 0.000000 0.000000 0.000000 0.000000 0.000000 0.000000 0.000000 0.000000 0.000000 0.000000 0.000000 0.000000 0.000000 0.000000 0.000000 -0.267831 1.497924 -0.081824 -0.248917 1.989559 -2.375798 -0.145138 0.996011 -2.389486 -1.416165 -2.324253 -8.430930 3.433928 -4.143551 30.680070 1.007703 -1.643040 11.449223 0.000000 0.000000 0.000000 -1.590664 14.172809 -28.354396 21.651155 -32.580520 6.396998 18.830286 -3.803421 30.477617 0.000000 0.000000 0.000000 -7.125000 0.000000 0.000000 -7.095030 -1.677481 -7.355029 0.000000 0.000000 0.000000 0.632426 19.538604 24.254105 -24.606733 -35.799321 -8.058765 -16.498970 26.983031 28.613617 0.000000 0.000000 0.000000 7.125000 0.000000 0.000000 16.123507 58.885620 -5.564034
-0.550149 18.588223 5.901755 -1.240525 -4.209542 0.088687 0.000000 0.000000 0.000000 -14.439840 -5.339741 2.546619 1.026096 6.443682 18.077255 1.804009 9.533396 -30.327947 8.114514 -16.202888 -52.974228 0.000000 0.000000 0.000000 0.000000 0.000000 0.000000 0.000000 0.000000 0.000000 0.000000 0.000000 0.000000 0.000000 0.000000 0.000000 -0.151705 1.508270 0.090805 -0.261096 2.004068 -2.390648 -0.228117 1.000628 -2.497448 -1.412516 -2.368793 -8.463004 3.396630 -4.192389 30.589141 0.986465 -1.669659 11.420526 0.000000 0.000000 0.000000 -1.417816 14.187323 -28.445616 21.718051 -32.656938 6.433047 18.402305 -3.375010 29.957224 0.000000 0.000000 0.000000 -7.125000 0.000000 0.000000 -7.280546 -1.072385 -7.475615 0.000000 0.000000 0.000000 0.504943 19.557739 24.332653 -24.551845 -35.742458 -8.026686 -16.141068 26.440446 27.727114 0.000000 0.000000 0.000000 7.125000 0.000000 0.000000 15.938180 57.949396 -5.136840
-0.573194 18.598464 5.904957 -0.641503 -4.324216 0.367553 0.000000 0.000000 0.000000 -15.014153 -5.479331 2.288431 1.008494 6.389727 17.919532 1.795517 9.620036 -30.333647 8.056762 -16.160882 -52.766921 0.000000 0.000000 0.000000 0.000000 0.000000 0.000000 0.000000 0.000000 0.000000 0.000000 0.000000 0.000000 0.000000 0.000000 0.000000 -1.178646 1.547439 -0.222144 -0.329815 2.044586 -2.352277 0.284228 1.040900 -2.316103 -1.430456 -2.394894 -8.544008 3.397137 -4.213894 30.327096 0.984743 -1.683234 11.335388 0.000000 0.000000 0.000000 -1.327246 14.037707 -28.415560 21.697375 -32.633341 6.421916 18.144104 -3.133164 29.685959 0.000000 0.000000 0.000000 -7.125000 0.000000 0.000000 -7.399663 -0.751808 -7.559053 0.000000 0.000000 0.000000 0.320496 19.446822 24.447080 -24.506012 -35.694821 -7.999874 -15.508804 25.852948 27.047111 0.000000 0.000000 0.000000 7.125000 0.000000 0.000000 16.184016 57.156151 -4.906439
-0.577650 18.603333 5.900263 -0.443727 -4.332040 0.470041 0.000000 0.000000 0.000000 -15.212590 -5.521723 2.193286 0.995774 6.350499 17.804963 1.776651 9.689721 -30.261555 8.041311 -16.149597 -52.711376 0.000000 0.000000 0.000000 0.000000 0.000000 0.000000 0.000000 0.000000 0.000000 0.000000 0.000000 0.000000 0.000000 0.000000 0.000000 -1.444335 1.571093 -0.187673 -0.375340 2.072733 -2.252515 0.386244 1.058909 -2.241288 -1.425768 -2.403637 -8.635571 3.431511 -4.219850 29.968927 0.992980 -1.684175 11.215561 0.000000 0.000000 0.000000 -1.221087 13.822861 -28.404067 21.648578 -32.577601 6.395626 17.877775 -2.892355 29.400056 0.000000 0.000000 0.000000 -7.125000 0.000000 0.000000 -7.523375 -0.415924 -7.643662 0.000000 0.000000 0.000000 0.180405 19.291863 24.530339 -24.455512 -35.642233 -7.970448 -14.998783 25.316346 26.767374 0.000000 0.000000 0.000000 7.125000 0.000000 0.000000 16.544595 56.779152 -4.868030
-0.576371 18.606915 5.889745 -0.497323 -4.345595 0.541474 0.000000 0.000000 0.000000 -15.141110 -5.508159 2.057114 0.995972 6.351266 17.807110 1.767463 9.681515 -30.197193 8.044525 -16.151907 -52.722922 0.000000 0.000000 0.000000 0.000000 0.000000 0.000000 0.000000 0.000000 0.000000 0.000000 0.000000 0.000000 0.000000 0.000000 0.000000 -1.349240 1.598573 -0.009139 -0.381033 2.108332 -2.156952 0.323026 1.074439 -2.240145 -1.268056 -2.408137 -8.818926 3.307096 -4.207297 29.672459 0.918054 -1.676554 11.130687 0.000000 0.000000 0.000000 -1.122093 13.597241 -28.321135 21.522647 -32.433256 6.327886 17.575728 -2.470247 29.139072 0.000000 0.000000 0.000000 -7.125000 0.000000 0.000000 -7.671764 -0.099756 -7.754898 0.000000 0.000000 0.000000 0.109238 19.153712 24.521129 -24.372360 -35.555545 -7.922070 -14.674190 25.083219 26.679814 0.000000 0.000000 0.000000 7.125000 0.000000 0.000000 16.826111 56.627545 -4.892013
